<svg width="626" height="97" viewBox="0 0 626 97" fill="none" xmlns="http://www.w3.org/2000/svg">
<path d="M10.176 54.432C16.32 44 21.312 36.256 25.152 31.2C29.056 26.08 32.224 23.52 34.656 23.52C37.152 23.52 39.488 24.832 41.664 27.456C43.904 30.08 45.024 32.864 45.024 35.808C45.024 40.416 43.968 46.048 41.856 52.704C38.016 64.992 34.56 71.136 31.488 71.136C30.08 71.136 29.376 70.176 29.376 68.256C29.376 66.912 30.048 64.192 31.392 60.096C32.8 55.936 34.08 51.872 35.232 47.904C36.448 43.872 37.056 40.864 37.056 38.88C37.056 36.832 36.736 35.328 36.096 34.368C35.52 33.408 34.912 32.928 34.272 32.928C33.696 32.928 33.088 33.12 32.448 33.504C31.808 33.888 31.072 34.528 30.24 35.424C29.472 36.32 28.736 37.216 28.032 38.112C27.328 38.944 26.432 40.16 25.344 41.76C24.32 43.36 23.456 44.736 22.752 45.888C22.048 46.976 21.024 48.576 19.68 50.688C18.336 52.8 17.312 54.4 16.608 55.488C15.904 56.576 14.976 58.048 13.824 59.904C12.672 61.76 11.744 63.2 11.04 64.224C10.4 65.248 9.66399 66.368 8.83199 67.584C7.23199 69.952 5.95199 71.136 4.99199 71.136C4.09599 71.136 3.03999 70.432 1.82399 69.024C0.607992 67.552 -7.62939e-06 66.272 -7.62939e-06 65.184C-7.62939e-06 64.864 0.223992 64 0.671992 62.592C1.88799 58.88 3.23199 54.304 4.70399 48.864C6.17599 43.36 6.97599 37.12 7.10399 30.144C7.29599 25.472 7.96799 23.136 9.11999 23.136C10.528 23.136 11.936 23.872 13.344 25.344C14.752 26.816 15.456 28.448 15.456 30.24C15.456 31.968 14.912 35.36 13.824 40.416C12.8 45.408 11.584 50.08 10.176 54.432ZM90.2595 39.456C90.2595 42.848 88.4035 45.632 84.6915 47.808C81.0435 49.92 76.8835 50.976 72.2115 50.976C67.6035 50.976 63.4115 50.464 59.6355 49.44C58.7395 52.256 58.2915 54.784 58.2915 57.024C58.2915 59.2 58.9635 60.896 60.3075 62.112C61.7155 63.328 63.9875 63.936 67.1235 63.936C70.3235 63.936 73.5875 63.392 76.9155 62.304C80.3075 61.152 82.1635 60.576 82.4835 60.576C84.1475 60.576 84.9795 61.216 84.9795 62.496C84.9795 64.224 83.0275 66.112 79.1235 68.16C75.2195 70.144 71.4115 71.136 67.6995 71.136C62.7075 71.136 58.6435 69.664 55.5075 66.72C52.3715 63.712 50.8035 59.936 50.8035 55.392C50.8035 50.848 52.0195 46.112 54.4515 41.184C56.8835 36.192 60.0195 32 63.8595 28.608C67.6995 25.216 71.5075 23.52 75.2835 23.52C79.0595 23.52 82.4835 25.312 85.5555 28.896C88.6915 32.48 90.2595 36 90.2595 39.456ZM75.7635 31.104C73.3955 31.104 70.9315 32.352 68.3715 34.848C65.8115 37.28 63.6355 40.32 61.8435 43.968C64.4035 44.544 67.3155 44.832 70.5795 44.832C73.8435 44.832 76.6915 44.32 79.1235 43.296C81.5555 42.208 82.7715 40.8 82.7715 39.072C82.7715 37.344 81.9715 35.584 80.3715 33.792C78.8355 32 77.2995 31.104 75.7635 31.104ZM122.63 23.52C124.806 23.52 126.854 24.736 128.774 27.168C130.694 29.536 131.654 31.616 131.654 33.408C131.654 34.496 131.142 35.04 130.118 35.04C129.414 35.04 128.326 34.496 126.854 33.408C125.382 32.256 123.878 31.68 122.342 31.68C120.806 31.68 118.374 32.576 115.046 34.368C111.782 36.16 110.15 38.048 110.15 40.032C110.15 41.504 113.094 44.032 118.982 47.616C121.222 49.024 123.238 50.848 125.03 53.088C126.886 55.264 127.814 57.632 127.814 60.192C127.814 62.688 126.054 65.152 122.534 67.584C119.078 69.952 115.014 71.136 110.342 71.136C105.734 71.136 101.638 70.016 98.0542 67.776C94.5342 65.536 92.7742 63.424 92.7742 61.44C92.7742 60.608 92.9662 59.968 93.3502 59.52C93.7982 59.008 94.3422 58.752 94.9822 58.752C95.6222 58.752 96.5182 59.168 97.6702 60C101.126 62.496 104.71 63.744 108.422 63.744C112.198 63.744 114.918 63.328 116.582 62.496C118.246 61.6 119.078 60.448 119.078 59.04C119.078 57.568 118.15 56.032 116.294 54.432C114.438 52.768 112.39 51.296 110.15 50.016C107.974 48.736 105.958 47.168 104.102 45.312C102.246 43.456 101.318 41.568 101.318 39.648C101.318 36.256 103.974 32.736 109.286 29.088C114.662 25.376 119.11 23.52 122.63 23.52ZM145.457 54.432C151.601 44 156.593 36.256 160.433 31.2C164.337 26.08 167.505 23.52 169.937 23.52C172.433 23.52 174.769 24.832 176.945 27.456C179.185 30.08 180.305 32.864 180.305 35.808C180.305 40.416 179.249 46.048 177.137 52.704C173.297 64.992 169.841 71.136 166.769 71.136C165.361 71.136 164.657 70.176 164.657 68.256C164.657 66.912 165.329 64.192 166.673 60.096C168.081 55.936 169.361 51.872 170.513 47.904C171.729 43.872 172.337 40.864 172.337 38.88C172.337 36.832 172.017 35.328 171.377 34.368C170.801 33.408 170.193 32.928 169.553 32.928C168.977 32.928 168.369 33.12 167.729 33.504C167.089 33.888 166.353 34.528 165.521 35.424C164.753 36.32 164.017 37.216 163.313 38.112C162.609 38.944 161.713 40.16 160.625 41.76C159.601 43.36 158.737 44.736 158.033 45.888C157.329 46.976 156.305 48.576 154.961 50.688C153.617 52.8 152.593 54.4 151.889 55.488C151.185 56.576 150.257 58.048 149.105 59.904C147.953 61.76 147.025 63.2 146.321 64.224C145.681 65.248 144.945 66.368 144.113 67.584C142.513 69.952 141.233 71.136 140.273 71.136C139.377 71.136 138.321 70.432 137.105 69.024C135.889 67.552 135.281 66.272 135.281 65.184C135.281 64.864 135.505 64 135.953 62.592C137.169 58.88 138.513 54.304 139.985 48.864C141.457 43.36 142.257 37.12 142.385 30.144C142.577 25.472 143.249 23.136 144.401 23.136C145.809 23.136 147.217 23.872 148.625 25.344C150.033 26.816 150.737 28.448 150.737 30.24C150.737 31.968 150.193 35.36 149.105 40.416C148.081 45.408 146.865 50.08 145.457 54.432ZM233.125 0.384003C234.021 0.384003 234.885 0.992002 235.717 2.208C236.549 3.36 236.965 4.416 236.965 5.376C236.965 6.272 236.869 6.944 236.677 7.392C236.549 7.84 236.165 8.32 235.525 8.832C234.949 9.344 234.437 9.76 233.989 10.08C231.749 11.552 230.021 12.704 228.805 13.536C227.589 14.304 226.565 15.008 225.733 15.648C224.901 16.288 224.293 16.736 223.909 16.992C222.309 18.08 221.157 18.624 220.453 18.624C219.749 18.624 219.141 18.368 218.629 17.856C218.181 17.28 217.957 16.544 217.957 15.648C217.957 14.752 218.341 13.792 219.109 12.768C219.941 11.744 221.125 10.496 222.661 9.024C224.197 7.488 225.413 6.272 226.309 5.376C227.269 4.48 228.005 3.776 228.517 3.264C229.029 2.752 229.573 2.24 230.149 1.728C231.237 0.832003 232.229 0.384003 233.125 0.384003ZM213.061 23.52C215.941 23.52 218.597 24.992 221.029 27.936C223.461 30.816 224.677 33.44 224.677 35.808C224.677 38.112 223.877 40.48 222.277 42.912C223.045 43.872 223.429 44.704 223.429 45.408C223.429 47.2 223.013 50.272 222.181 54.624C221.413 58.976 220.933 61.824 220.741 63.168C220.613 64.512 220.485 65.6 220.357 66.432C220.229 67.2 220.101 67.968 219.973 68.736C219.653 70.336 219.045 71.136 218.149 71.136C215.845 71.136 214.469 67.552 214.021 60.384C208.261 67.552 202.981 71.136 198.181 71.136C195.237 71.136 192.325 69.888 189.445 67.392C186.629 64.832 185.221 62.208 185.221 59.52C185.221 55.68 186.629 50.944 189.445 45.312C192.261 39.616 195.909 34.56 200.389 30.144C204.869 25.728 209.093 23.52 213.061 23.52ZM217.477 40.416C217.477 34.464 216.325 31.488 214.021 31.488C211.525 31.488 208.581 33.28 205.189 36.864C201.861 40.384 199.045 44.384 196.741 48.864C194.437 53.344 193.285 56.896 193.285 59.52C193.285 60.608 193.733 61.504 194.629 62.208C195.525 62.848 196.581 63.168 197.797 63.168C200.805 63.168 204.197 61.152 207.973 57.12C211.749 53.024 214.373 48.064 215.845 42.24C216.037 41.28 216.581 40.704 217.477 40.512V40.416ZM259.974 23.52C262.15 23.52 264.198 24.736 266.118 27.168C268.038 29.536 268.998 31.616 268.998 33.408C268.998 34.496 268.486 35.04 267.462 35.04C266.758 35.04 265.67 34.496 264.198 33.408C262.726 32.256 261.222 31.68 259.686 31.68C258.15 31.68 255.718 32.576 252.39 34.368C249.126 36.16 247.494 38.048 247.494 40.032C247.494 41.504 250.438 44.032 256.326 47.616C258.566 49.024 260.582 50.848 262.374 53.088C264.23 55.264 265.158 57.632 265.158 60.192C265.158 62.688 263.398 65.152 259.878 67.584C256.422 69.952 252.358 71.136 247.686 71.136C243.078 71.136 238.982 70.016 235.398 67.776C231.878 65.536 230.118 63.424 230.118 61.44C230.118 60.608 230.31 59.968 230.694 59.52C231.142 59.008 231.686 58.752 232.326 58.752C232.966 58.752 233.862 59.168 235.014 60C238.47 62.496 242.054 63.744 245.766 63.744C249.542 63.744 252.262 63.328 253.926 62.496C255.59 61.6 256.422 60.448 256.422 59.04C256.422 57.568 255.494 56.032 253.638 54.432C251.782 52.768 249.734 51.296 247.494 50.016C245.318 48.736 243.302 47.168 241.446 45.312C239.59 43.456 238.662 41.568 238.662 39.648C238.662 36.256 241.318 32.736 246.63 29.088C252.006 25.376 256.454 23.52 259.974 23.52ZM269.094 3.264C270.95 3.264 271.878 4.096 271.878 5.76C271.878 6.656 271.494 7.488 270.726 8.256C270.022 8.96 268.742 9.888 266.886 11.04C265.03 12.192 263.718 13.056 262.95 13.632C262.182 14.208 261.158 15.072 259.878 16.224C258.598 17.312 257.574 18.144 256.806 18.72C256.038 19.232 255.334 19.488 254.694 19.488C253.414 19.488 250.694 17.44 246.534 13.344C242.374 9.184 240.294 5.92 240.294 3.552C240.294 2.528 240.582 1.696 241.158 1.056C241.734 0.352001 242.47 1.90735e-06 243.366 1.90735e-06C244.326 1.90735e-06 245.254 0.544003 246.15 1.632C247.046 2.72 248.294 4.32 249.894 6.432C251.494 8.48001 253.318 10.304 255.366 11.904C258.566 8.96 261.382 6.784 263.814 5.376C266.31 3.968 268.07 3.264 269.094 3.264ZM286.257 23.52C287.281 23.52 288.337 24.256 289.425 25.728C290.513 27.2 291.057 28.608 291.057 29.952C291.057 33.472 287.793 45.568 281.265 66.24C280.177 69.44 278.769 71.04 277.041 71.04C276.145 71.04 275.377 70.688 274.737 69.984C274.161 69.216 273.873 68.352 273.873 67.392C273.873 66.432 274.193 64.672 274.833 62.112C275.473 59.488 276.305 56.32 277.329 52.608C278.353 48.832 279.569 43.776 280.977 37.44C282.449 31.104 283.441 27.2 283.953 25.728C284.465 24.256 285.233 23.52 286.257 23.52ZM289.617 18.624C288.977 18.624 288.401 18.368 287.889 17.856C287.441 17.28 287.217 16.544 287.217 15.648C287.217 14.752 287.601 13.792 288.369 12.768C289.201 11.744 290.385 10.496 291.921 9.024C293.457 7.488 294.673 6.272 295.569 5.376C296.529 4.48 297.265 3.776 297.777 3.264C298.289 2.752 298.833 2.24 299.409 1.728C300.497 0.832003 301.489 0.384003 302.385 0.384003C303.281 0.384003 304.145 0.992002 304.977 2.208C305.809 3.36 306.225 4.416 306.225 5.376C306.225 6.272 306.129 6.944 305.937 7.392C305.809 7.84 305.425 8.32 304.785 8.832C304.209 9.344 303.697 9.76 303.249 10.08C301.009 11.552 299.281 12.704 298.065 13.536C296.849 14.304 295.825 15.008 294.993 15.648C294.161 16.288 293.553 16.736 293.169 16.992C291.505 18.08 290.321 18.624 289.617 18.624ZM358.38 23.52C360.3 23.52 361.996 24.864 363.468 27.552C365.004 30.176 365.772 33.184 365.772 36.576C365.772 39.904 365.164 44.256 363.948 49.632C362.796 55.008 361.228 59.936 359.244 64.416C357.26 68.896 355.308 71.136 353.388 71.136C352.044 71.136 351.372 70.272 351.372 68.544C351.372 66.752 352.46 62.432 354.636 55.584C356.876 48.672 357.996 43.2 357.996 39.168C357.996 35.072 357.356 33.024 356.076 33.024C354.476 33.024 352.62 34.432 350.508 37.248C348.46 40.064 346.252 43.456 343.884 47.424C341.516 51.392 340.236 53.536 340.044 53.856C339.852 54.112 339.596 54.496 339.276 55.008C339.02 55.52 338.7 56.064 338.316 56.64C337.996 57.216 337.1 58.944 335.628 61.824C334.22 64.704 332.972 66.976 331.884 68.64C330.796 70.24 329.836 71.04 329.004 71.04C328.236 71.04 327.372 70.528 326.412 69.504C325.452 68.48 324.972 67.52 324.972 66.624C324.972 65.728 325.548 63.872 326.7 61.056C330.028 52.736 331.692 44.992 331.692 37.824C331.692 36.48 331.404 35.36 330.828 34.464C330.252 33.504 329.612 33.024 328.908 33.024C328.204 33.024 327.468 33.344 326.7 33.984C325.932 34.56 324.972 35.648 323.82 37.248C322.668 38.784 321.644 40.256 320.748 41.664C319.852 43.072 318.476 45.28 316.62 48.288C314.828 51.232 313.452 53.44 312.492 54.912C311.596 56.32 310.54 57.984 309.324 59.904C308.108 61.76 307.148 63.2 306.444 64.224C305.804 65.248 305.068 66.368 304.236 67.584C302.508 69.952 301.228 71.136 300.396 71.136C299.628 71.136 298.604 70.432 297.324 69.024C296.044 67.552 295.404 66.464 295.404 65.76C295.404 64.992 295.532 64.064 295.788 62.976C296.044 61.888 296.3 60.832 296.556 59.808C296.876 58.784 297.324 57.28 297.9 55.296C298.54 53.248 299.244 50.88 300.012 48.192C300.844 45.44 301.452 41.696 301.836 36.96C302.284 32.16 302.604 28.672 302.796 26.496C302.988 24.256 303.532 23.136 304.428 23.136C305.836 23.136 307.212 23.872 308.556 25.344C309.964 26.816 310.668 28.288 310.668 29.76C310.668 35.392 308.556 44.672 304.332 57.6C311.5 44.16 316.012 36.192 317.868 33.696C319.724 31.2 321.324 29.184 322.668 27.648C325.164 24.896 327.692 23.52 330.252 23.52C331.788 23.52 333.612 24.864 335.724 27.552C337.9 30.176 338.988 32.832 338.988 35.52C338.988 38.208 338.604 41.536 337.836 45.504C345.388 30.848 352.236 23.52 358.38 23.52ZM420.613 54.432C426.757 44 431.749 36.256 435.589 31.2C439.493 26.08 442.661 23.52 445.093 23.52C447.589 23.52 449.925 24.832 452.101 27.456C454.341 30.08 455.461 32.864 455.461 35.808C455.461 40.416 454.405 46.048 452.293 52.704C448.453 64.992 444.997 71.136 441.925 71.136C440.517 71.136 439.813 70.176 439.813 68.256C439.813 66.912 440.485 64.192 441.829 60.096C443.237 55.936 444.517 51.872 445.669 47.904C446.885 43.872 447.493 40.864 447.493 38.88C447.493 36.832 447.173 35.328 446.533 34.368C445.957 33.408 445.349 32.928 444.709 32.928C444.133 32.928 443.525 33.12 442.885 33.504C442.245 33.888 441.509 34.528 440.677 35.424C439.909 36.32 439.173 37.216 438.469 38.112C437.765 38.944 436.869 40.16 435.781 41.76C434.757 43.36 433.893 44.736 433.189 45.888C432.485 46.976 431.461 48.576 430.117 50.688C428.773 52.8 427.749 54.4 427.045 55.488C426.341 56.576 425.413 58.048 424.261 59.904C423.109 61.76 422.181 63.2 421.477 64.224C420.837 65.248 420.101 66.368 419.269 67.584C417.669 69.952 416.389 71.136 415.429 71.136C414.533 71.136 413.477 70.432 412.261 69.024C411.045 67.552 410.437 66.272 410.437 65.184C410.437 64.864 410.661 64 411.109 62.592C412.325 58.88 413.669 54.304 415.141 48.864C416.613 43.36 417.413 37.12 417.541 30.144C417.733 25.472 418.405 23.136 419.557 23.136C420.965 23.136 422.373 23.872 423.781 25.344C425.189 26.816 425.893 28.448 425.893 30.24C425.893 31.968 425.349 35.36 424.261 40.416C423.237 45.408 422.021 50.08 420.613 54.432ZM500.697 39.456C500.697 42.848 498.841 45.632 495.129 47.808C491.481 49.92 487.321 50.976 482.649 50.976C478.041 50.976 473.849 50.464 470.073 49.44C469.177 52.256 468.729 54.784 468.729 57.024C468.729 59.2 469.401 60.896 470.745 62.112C472.153 63.328 474.425 63.936 477.561 63.936C480.761 63.936 484.025 63.392 487.353 62.304C490.745 61.152 492.601 60.576 492.921 60.576C494.585 60.576 495.417 61.216 495.417 62.496C495.417 64.224 493.465 66.112 489.561 68.16C485.657 70.144 481.849 71.136 478.137 71.136C473.145 71.136 469.081 69.664 465.945 66.72C462.809 63.712 461.241 59.936 461.241 55.392C461.241 50.848 462.457 46.112 464.889 41.184C467.321 36.192 470.457 32 474.297 28.608C478.137 25.216 481.945 23.52 485.721 23.52C489.497 23.52 492.921 25.312 495.993 28.896C499.129 32.48 500.697 36 500.697 39.456ZM486.201 31.104C483.833 31.104 481.369 32.352 478.809 34.848C476.249 37.28 474.073 40.32 472.281 43.968C474.841 44.544 477.753 44.832 481.017 44.832C484.281 44.832 487.129 44.32 489.561 43.296C491.993 42.208 493.209 40.8 493.209 39.072C493.209 37.344 492.409 35.584 490.809 33.792C489.273 32 487.737 31.104 486.201 31.104ZM543.628 45.216C543.628 47.776 542.508 50.688 540.268 53.952C538.54 57.856 536.684 63.488 534.7 70.848C532.716 78.144 531.052 83.36 529.708 86.496C527.02 93.024 522.892 96.288 517.324 96.288C512.78 96.288 508.94 95.04 505.804 92.544C502.732 90.112 501.196 87.68 501.196 85.248C501.196 84.224 501.516 83.2 502.156 82.176C502.732 81.152 503.34 80.64 503.98 80.64C504.684 80.64 505.452 81.12 506.284 82.08C507.116 83.04 507.884 84.064 508.588 85.152C509.356 86.304 510.476 87.36 511.948 88.32C513.484 89.28 514.956 89.76 516.364 89.76C517.772 89.76 518.828 89.536 519.532 89.088C520.236 88.704 520.908 88.032 521.548 87.072C522.188 86.176 522.732 85.248 523.18 84.288C523.628 83.392 524.108 82.08 524.62 80.352C525.196 78.688 525.644 77.248 525.964 76.032C526.284 74.816 526.732 73.12 527.308 70.944C527.884 68.704 528.364 66.912 528.748 65.568C523.756 69.28 519.692 71.136 516.556 71.136C513.42 71.136 510.7 69.888 508.396 67.392C506.092 64.832 504.94 61.888 504.94 58.56C504.94 55.168 506.188 50.688 508.684 45.12C511.244 39.552 514.668 34.56 518.956 30.144C523.244 25.728 527.436 23.52 531.532 23.52C534.156 23.52 536.364 24.512 538.156 26.496C541.1 29.76 542.572 34.4 542.572 40.416C542.572 41.184 542.54 41.728 542.476 42.048C543.244 43.136 543.628 44.192 543.628 45.216ZM512.716 59.52C512.716 60.608 513.068 61.504 513.772 62.208C514.476 62.848 515.372 63.168 516.46 63.168C519.66 63.168 523.436 61.28 527.788 57.504C532.14 53.664 535.212 49.216 537.004 44.16C536.748 43.328 536.524 42.048 536.332 40.32C536.14 38.592 535.948 37.216 535.756 36.192C535.564 35.168 535.148 34.144 534.508 33.12C533.868 32.032 533.036 31.488 532.012 31.488C529.516 31.488 526.7 33.28 523.564 36.864C520.428 40.448 517.836 44.448 515.788 48.864C513.74 53.28 512.716 56.832 512.716 59.52ZM556.934 35.232L556.646 28.032C556.646 25.024 557.35 23.52 558.758 23.52C559.974 23.52 561.126 24.32 562.214 25.92C563.366 27.456 563.942 29.312 563.942 31.488C563.942 33.6 563.878 35.2 563.75 36.288C569.318 27.84 574.598 23.616 579.59 23.616C582.726 23.616 584.294 24.384 584.294 25.92C584.294 26.688 583.942 27.392 583.238 28.032C582.534 28.672 581.414 29.408 579.878 30.24C576.486 31.712 573.606 33.984 571.238 37.056C568.934 40.064 567.046 43.488 565.574 47.328C564.102 51.168 562.918 54.4 562.022 57.024C561.19 59.648 560.55 61.696 560.102 63.168C559.654 64.64 559.142 66.08 558.566 67.488C557.542 70.048 556.358 71.328 555.014 71.328C553.926 71.328 553.03 70.72 552.326 69.504C551.686 68.224 551.366 67.008 551.366 65.856C551.366 64.64 551.91 62.272 552.998 58.752C555.622 50.688 556.934 42.848 556.934 35.232ZM620.491 23.52C621.515 23.52 622.603 24.288 623.755 25.824C624.971 27.296 625.579 28.96 625.579 30.816C625.579 32.096 624.267 36.448 621.643 43.872C619.019 51.296 617.227 56.352 616.267 59.04C615.371 61.664 614.123 65.184 612.523 69.6C610.987 73.952 609.483 78.208 608.011 82.368C604.811 91.52 600.011 96.096 593.611 96.096C589.963 96.096 586.475 94.976 583.147 92.736C579.819 90.56 578.155 88.288 578.155 85.92C578.155 85.024 578.571 84.032 579.403 82.944C580.171 81.856 580.843 81.312 581.419 81.312C581.995 81.312 582.923 82.016 584.203 83.424C587.915 87.648 591.083 89.76 593.707 89.76C595.691 89.76 597.483 88 599.083 84.48C600.683 81.024 602.187 77.088 603.595 72.672C605.067 68.32 605.867 65.92 605.995 65.472C606.187 65.024 606.379 64.448 606.571 63.744C606.827 63.04 607.051 62.4 607.243 61.824C602.699 68.032 598.219 71.136 593.803 71.136C591.115 71.136 588.619 69.888 586.315 67.392C584.075 64.896 582.955 61.952 582.955 58.56C582.955 55.168 583.787 50.592 585.451 44.832C587.115 39.072 589.067 34.08 591.307 29.856C593.547 25.632 595.371 23.52 596.779 23.52C597.931 23.52 598.987 24.064 599.947 25.152C600.971 26.176 601.483 27.232 601.483 28.32C601.483 29.408 600.651 31.68 598.987 35.136C593.803 45.76 591.211 54.016 591.211 59.904C591.211 60.928 591.531 61.792 592.171 62.496C592.811 63.136 593.579 63.456 594.475 63.456C596.779 63.456 599.531 61.408 602.731 57.312C605.931 53.216 608.875 48.352 611.563 42.72C613.803 37.984 616.139 31.936 618.571 24.576C618.827 23.872 619.467 23.52 620.491 23.52Z" fill="white"/>
</svg>
